G04 Layer: TopSolderMaskLayer*
G04 EasyEDA v6.3.22, 2020-04-01T11:54:54--7:00*
G04 ca9891681b394fd3aee58acbbe32b52a,95dd31e7bbc04d03a1fa04b442bf807f,10*
G04 Gerber Generator version 0.2*
G04 Scale: 100 percent, Rotated: No, Reflected: No *
G04 Dimensions in millimeters *
G04 leading zeros omitted , absolute positions ,3 integer and 3 decimal *
%FSLAX33Y33*%
%MOMM*%
G90*
G71D02*

%ADD23C,1.778000*%
%ADD42C,1.103198*%
%ADD45C,1.981200*%
%ADD46C,1.676400*%
%ADD48C,2.082800*%

%LPD*%
G54D42*
G01X29176Y97155D02*
G01X31276Y97155D01*
G01X29176Y95653D02*
G01X31276Y95653D01*
G01X29176Y94155D02*
G01X31276Y94155D01*
G01X34426Y97155D02*
G01X36526Y97155D01*
G01X34426Y95653D02*
G01X36526Y95653D01*
G01X34426Y94155D02*
G01X36526Y94155D01*
G36*
G01X6207Y88579D02*
G01X6207Y89982D01*
G01X8412Y89982D01*
G01X8412Y88579D01*
G01X6207Y88579D01*
G37*
G36*
G01X6207Y86080D02*
G01X6207Y87482D01*
G01X8412Y87482D01*
G01X8412Y86080D01*
G01X6207Y86080D01*
G37*
G36*
G01X11907Y91079D02*
G01X11907Y92481D01*
G01X14112Y92481D01*
G01X14112Y91079D01*
G01X11907Y91079D01*
G37*
G36*
G01X11907Y88579D02*
G01X11907Y89982D01*
G01X14112Y89982D01*
G01X14112Y88579D01*
G01X11907Y88579D01*
G37*
G36*
G01X11907Y86080D02*
G01X11907Y87482D01*
G01X14112Y87482D01*
G01X14112Y86080D01*
G01X11907Y86080D01*
G37*
G36*
G01X6207Y91079D02*
G01X6207Y92481D01*
G01X8412Y92481D01*
G01X8412Y91079D01*
G01X6207Y91079D01*
G37*
G36*
G01X56850Y10815D02*
G01X56850Y13566D01*
G01X58468Y13566D01*
G01X58468Y10815D01*
G01X56850Y10815D01*
G37*
G36*
G01X59390Y10815D02*
G01X59390Y13566D01*
G01X61008Y13566D01*
G01X61008Y10815D01*
G01X59390Y10815D01*
G37*
G36*
G01X61930Y10815D02*
G01X61930Y13566D01*
G01X63548Y13566D01*
G01X63548Y10815D01*
G01X61930Y10815D01*
G37*
G36*
G01X30053Y25801D02*
G01X30053Y28552D01*
G01X31671Y28552D01*
G01X31671Y25801D01*
G01X30053Y25801D01*
G37*
G36*
G01X32593Y25801D02*
G01X32593Y28552D01*
G01X34211Y28552D01*
G01X34211Y25801D01*
G01X32593Y25801D01*
G37*
G36*
G01X35133Y25801D02*
G01X35133Y28552D01*
G01X36751Y28552D01*
G01X36751Y25801D01*
G01X35133Y25801D01*
G37*
G36*
G01X2240Y10815D02*
G01X2240Y13566D01*
G01X3858Y13566D01*
G01X3858Y10815D01*
G01X2240Y10815D01*
G37*
G36*
G01X4780Y10815D02*
G01X4780Y13566D01*
G01X6398Y13566D01*
G01X6398Y10815D01*
G01X4780Y10815D01*
G37*
G36*
G01X7320Y10815D02*
G01X7320Y13566D01*
G01X8938Y13566D01*
G01X8938Y10815D01*
G01X7320Y10815D01*
G37*
G54D45*
G01X24892Y34798D03*
G01X27432Y34798D03*
G01X29972Y34798D03*
G01X32512Y34798D03*
G01X35052Y34798D03*
G01X37592Y34798D03*
G01X40132Y34798D03*
G01X42418Y34798D03*
G54D46*
G01X61947Y77979D03*
G01X59407Y77979D03*
G01X56867Y77979D03*
G01X54327Y77979D03*
G01X51787Y77979D03*
G01X49247Y77979D03*
G01X46707Y77979D03*
G01X44167Y77979D03*
G01X41627Y77979D03*
G01X39087Y77979D03*
G01X36547Y77979D03*
G01X34007Y77979D03*
G01X31467Y77979D03*
G01X28927Y77979D03*
G01X23847Y77979D03*
G01X21307Y77979D03*
G01X18767Y77979D03*
G01X16227Y77979D03*
G01X28927Y62739D03*
G01X31467Y62739D03*
G01X34007Y62739D03*
G01X36547Y62739D03*
G01X39087Y62739D03*
G01X41627Y62739D03*
G01X44167Y62739D03*
G01X46707Y62739D03*
G01X49247Y62739D03*
G01X51787Y62739D03*
G01X54327Y62739D03*
G01X56867Y62739D03*
G01X59407Y62739D03*
G01X61947Y62739D03*
G01X59407Y65279D03*
G01X54327Y65279D03*
G01X51787Y65279D03*
G01X49247Y65279D03*
G01X26387Y77979D03*
G01X16227Y62739D03*
G01X18767Y62739D03*
G01X21307Y62739D03*
G01X23847Y62739D03*
G01X26387Y62739D03*
G01X13687Y77979D03*
G01X11147Y77979D03*
G01X8607Y77979D03*
G01X6067Y77979D03*
G01X3527Y77979D03*
G01X3527Y62739D03*
G01X13687Y62739D03*
G01X11147Y62739D03*
G01X8607Y62739D03*
G01X6067Y62739D03*
G36*
G01X24353Y28684D02*
G01X24353Y29989D01*
G01X25554Y29989D01*
G01X25554Y28684D01*
G01X24353Y28684D01*
G37*
G36*
G01X25753Y28684D02*
G01X25753Y29989D01*
G01X26954Y29989D01*
G01X26954Y28684D01*
G01X25753Y28684D01*
G37*
G54D48*
G01X30149Y18415D03*
G01X36652Y18415D03*
G01X35179Y7366D03*
G01X35179Y4826D03*
G01X35179Y2286D03*
G01X31496Y7366D03*
G01X31496Y4826D03*
G01X31496Y2286D03*
G36*
G01X59517Y47307D02*
G01X59517Y48958D01*
G01X60878Y48958D01*
G01X60878Y47307D01*
G01X59517Y47307D01*
G37*
G36*
G01X61549Y47307D02*
G01X61549Y48958D01*
G01X62910Y48958D01*
G01X62910Y47307D01*
G01X61549Y47307D01*
G37*
G36*
G01X59644Y28892D02*
G01X59644Y30543D01*
G01X61005Y30543D01*
G01X61005Y28892D01*
G01X59644Y28892D01*
G37*
G36*
G01X61676Y28892D02*
G01X61676Y30543D01*
G01X63037Y30543D01*
G01X63037Y28892D01*
G01X61676Y28892D01*
G37*
G36*
G01X2621Y28892D02*
G01X2621Y30543D01*
G01X3982Y30543D01*
G01X3982Y28892D01*
G01X2621Y28892D01*
G37*
G36*
G01X4653Y28892D02*
G01X4653Y30543D01*
G01X6014Y30543D01*
G01X6014Y28892D01*
G01X4653Y28892D01*
G37*
G36*
G01X31196Y88836D02*
G01X31196Y90487D01*
G01X32557Y90487D01*
G01X32557Y88836D01*
G01X31196Y88836D01*
G37*
G36*
G01X33228Y88836D02*
G01X33228Y90487D01*
G01X34589Y90487D01*
G01X34589Y88836D01*
G01X33228Y88836D01*
G37*
G36*
G01X24353Y26398D02*
G01X24353Y27703D01*
G01X25554Y27703D01*
G01X25554Y26398D01*
G01X24353Y26398D01*
G37*
G36*
G01X25753Y26398D02*
G01X25753Y27703D01*
G01X26954Y27703D01*
G01X26954Y26398D01*
G01X25753Y26398D01*
G37*
G36*
G01X60833Y82804D02*
G01X60833Y84582D01*
G01X62611Y84582D01*
G01X62611Y82804D01*
G01X60833Y82804D01*
G37*
G54D23*
G01X59182Y83693D03*
G01X56642Y83693D03*
G01X54102Y83693D03*
G01X51562Y83693D03*
G01X49022Y83693D03*
G01X46482Y83693D03*
G01X43942Y83693D03*
G36*
G01X31323Y85407D02*
G01X31323Y87058D01*
G01X32684Y87058D01*
G01X32684Y85407D01*
G01X31323Y85407D01*
G37*
G36*
G01X33355Y85407D02*
G01X33355Y87058D01*
G01X34716Y87058D01*
G01X34716Y85407D01*
G01X33355Y85407D01*
G37*
G36*
G01X31323Y81724D02*
G01X31323Y83375D01*
G01X32684Y83375D01*
G01X32684Y81724D01*
G01X31323Y81724D01*
G37*
G36*
G01X33355Y81724D02*
G01X33355Y83375D01*
G01X34716Y83375D01*
G01X34716Y81724D01*
G01X33355Y81724D01*
G37*
G36*
G01X59517Y50609D02*
G01X59517Y52260D01*
G01X60878Y52260D01*
G01X60878Y50609D01*
G01X59517Y50609D01*
G37*
G36*
G01X61549Y50609D02*
G01X61549Y52260D01*
G01X62910Y52260D01*
G01X62910Y50609D01*
G01X61549Y50609D01*
G37*
G36*
G01X59644Y32067D02*
G01X59644Y33718D01*
G01X61005Y33718D01*
G01X61005Y32067D01*
G01X59644Y32067D01*
G37*
G36*
G01X61676Y32067D02*
G01X61676Y33718D01*
G01X63037Y33718D01*
G01X63037Y32067D01*
G01X61676Y32067D01*
G37*
G36*
G01X2621Y32194D02*
G01X2621Y33845D01*
G01X3982Y33845D01*
G01X3982Y32194D01*
G01X2621Y32194D01*
G37*
G36*
G01X4653Y32194D02*
G01X4653Y33845D01*
G01X6014Y33845D01*
G01X6014Y32194D01*
G01X4653Y32194D01*
G37*
G36*
G01X2202Y36857D02*
G01X2202Y39441D01*
G01X6690Y39441D01*
G01X6690Y36857D01*
G01X2202Y36857D01*
G37*
G36*
G01X2202Y41836D02*
G01X2202Y44419D01*
G01X6690Y44419D01*
G01X6690Y41836D01*
G01X2202Y41836D01*
G37*
G36*
G01X59095Y41709D02*
G01X59095Y44292D01*
G01X63586Y44292D01*
G01X63586Y41709D01*
G01X59095Y41709D01*
G37*
G36*
G01X59095Y36730D02*
G01X59095Y39314D01*
G01X63586Y39314D01*
G01X63586Y36730D01*
G01X59095Y36730D01*
G37*
G36*
G01X59095Y23294D02*
G01X59095Y25877D01*
G01X63586Y25877D01*
G01X63586Y23294D01*
G01X59095Y23294D01*
G37*
G36*
G01X59095Y18315D02*
G01X59095Y20899D01*
G01X63586Y20899D01*
G01X63586Y18315D01*
G01X59095Y18315D01*
G37*
G36*
G01X2075Y18315D02*
G01X2075Y20899D01*
G01X6563Y20899D01*
G01X6563Y18315D01*
G01X2075Y18315D01*
G37*
G36*
G01X2075Y23294D02*
G01X2075Y25877D01*
G01X6563Y25877D01*
G01X6563Y23294D01*
G01X2075Y23294D01*
G37*
M00*
M02*
