;Layer: Drill PTH
;EasyEDA v6.3.22, 2020-04-01T11:54:54--7:00
;ca9891681b394fd3aee58acbbe32b52a,95dd31e7bbc04d03a1fa04b442bf807f,10
;Gerber Generator version 0.2
M48
METRIC,LZ,000.000
;Holesize 1 = 0.305 METRIC
T01C0.305
;Holesize 2 = 0.310 METRIC
T02C0.310
;Holesize 3 = 0.400 METRIC
T03C0.400
;Holesize 4 = 0.501 METRIC
T04C0.501
;Holesize 5 = 0.889 METRIC
T05C0.889
;Holesize 6 = 0.900 METRIC
T06C0.900
;Holesize 7 = 0.901 METRIC
T07C0.901
;Holesize 8 = 0.966 METRIC
T08C0.966
;Holesize 9 = 1.016 METRIC
T09C1.016
;Holesize 10 = 1.403 METRIC
T10C1.403
%
G05
G90
T01
X+031496Y+029972
X+061214Y+031369
X+000635Y+033147
T02
X+043654Y+059982
X+032738Y+084853
X+030911Y+080421
X+056288Y+048717
X+057668Y+036807
X+008082Y+031168
X+006075Y+031168
X+025689Y+030419
T03
X+044764Y+076360
X+008128Y+037973
X+008128Y+030226
X+011557Y+028956
T04
X+045694Y+037023
X+003484Y+055844
X+045339Y+030861
X+042291Y+032004
X+055626Y+079629
T05
X+061722Y+083693
X+059182Y+083693
X+056642Y+083693
X+054102Y+083693
X+051562Y+083693
X+049022Y+083693
X+046482Y+083693
X+043942Y+083693
T06
X+030149Y+018415
X+036652Y+018415
T07
X+024892Y+034797G85X+024892Y+034798
X+027432Y+034797G85X+027432Y+034798
X+029972Y+034797G85X+029972Y+034798
X+032512Y+034797G85X+032512Y+034798
X+035052Y+034797G85X+035052Y+034798
X+037592Y+034797G85X+037592Y+034798
X+040132Y+034797G85X+040132Y+034798
X+042418Y+034797G85X+042418Y+034798
T08
X+061947Y+077981G85X+061947Y+077976
X+059407Y+077981G85X+059407Y+077976
X+056867Y+077981G85X+056867Y+077976
X+054327Y+077981G85X+054327Y+077976
X+051787Y+077981G85X+051787Y+077976
X+049247Y+077981G85X+049247Y+077976
X+046707Y+077981G85X+046707Y+077976
X+044167Y+077981G85X+044167Y+077976
X+041627Y+077981G85X+041627Y+077976
X+039087Y+077981G85X+039087Y+077976
X+036547Y+077981G85X+036547Y+077976
X+034007Y+077981G85X+034007Y+077976
X+031467Y+077981G85X+031467Y+077976
X+028927Y+077981G85X+028927Y+077976
X+023847Y+077981G85X+023847Y+077976
X+021307Y+077981G85X+021307Y+077976
X+018767Y+077981G85X+018767Y+077976
X+016227Y+077981G85X+016227Y+077976
X+028927Y+062741G85X+028927Y+062736
X+031467Y+062741G85X+031467Y+062736
X+034007Y+062741G85X+034007Y+062736
X+036547Y+062741G85X+036547Y+062736
X+039087Y+062741G85X+039087Y+062736
X+041627Y+062741G85X+041627Y+062736
X+044167Y+062741G85X+044167Y+062736
X+046707Y+062741G85X+046707Y+062736
X+049247Y+062741G85X+049247Y+062736
X+051787Y+062741G85X+051787Y+062736
X+054327Y+062741G85X+054327Y+062736
X+056867Y+062741G85X+056867Y+062736
X+059407Y+062741G85X+059407Y+062736
X+061947Y+062741G85X+061947Y+062736
X+059407Y+065281G85X+059407Y+065276
X+054327Y+065281G85X+054327Y+065276
X+051787Y+065281G85X+051787Y+065276
X+049247Y+065281G85X+049247Y+065276
X+026387Y+077981G85X+026387Y+077976
X+016227Y+062741G85X+016227Y+062736
X+018767Y+062741G85X+018767Y+062736
X+021307Y+062741G85X+021307Y+062736
X+023847Y+062741G85X+023847Y+062736
X+026387Y+062741G85X+026387Y+062736
X+013687Y+077981G85X+013687Y+077976
X+011147Y+077981G85X+011147Y+077976
X+008607Y+077981G85X+008607Y+077976
X+006067Y+077981G85X+006067Y+077976
X+003527Y+077981G85X+003527Y+077976
X+003527Y+062741G85X+003527Y+062736
X+013687Y+062741G85X+013687Y+062736
X+011147Y+062741G85X+011147Y+062736
X+008607Y+062741G85X+008607Y+062736
X+006067Y+062741G85X+006067Y+062736
T09
X+057658Y+012192
X+060198Y+012192
X+062738Y+012192
X+030861Y+027178
X+033401Y+027178
X+035941Y+027178
X+003048Y+012192
X+005588Y+012192
X+008128Y+012192
X+035179Y+007366
X+035179Y+004826
X+035179Y+002286
X+031496Y+007366
X+031496Y+004826
X+031496Y+002286
T10
X+004445Y+038150
X+004445Y+043129
X+061341Y+043002
X+061341Y+038023
X+061341Y+024587
X+061341Y+019608
X+004318Y+019608
X+004318Y+024587
M30
