G04 Layer: TopPasteMaskLayer*
G04 EasyEDA v6.3.22, 2020-04-01T11:54:54--7:00*
G04 ca9891681b394fd3aee58acbbe32b52a,95dd31e7bbc04d03a1fa04b442bf807f,10*
G04 Gerber Generator version 0.2*
G04 Scale: 100 percent, Rotated: No, Reflected: No *
G04 Dimensions in millimeters *
G04 leading zeros omitted , absolute positions ,3 integer and 3 decimal *
%FSLAX33Y33*%
%MOMM*%
G90*
G71D02*

%ADD15C,0.899998*%
%ADD19R,1.999996X1.199896*%
%ADD20R,0.999998X1.099998*%
%ADD21R,1.160018X1.450010*%

%LPD*%
G54D15*
G01X29176Y97155D02*
G01X31276Y97155D01*
G01X29176Y95653D02*
G01X31276Y95653D01*
G01X29176Y94155D02*
G01X31276Y94155D01*
G01X34426Y97155D02*
G01X36526Y97155D01*
G01X34426Y95653D02*
G01X36526Y95653D01*
G01X34426Y94155D02*
G01X36526Y94155D01*
G54D19*
G01X7310Y89281D03*
G01X7310Y86781D03*
G01X13010Y91780D03*
G01X13010Y89281D03*
G01X13010Y86781D03*
G01X7310Y91780D03*
G54D20*
G01X24953Y29337D03*
G01X26354Y29337D03*
G54D21*
G01X60198Y48133D03*
G01X62230Y48133D03*
G01X60325Y29718D03*
G01X62357Y29718D03*
G01X3302Y29718D03*
G01X5334Y29718D03*
G01X31877Y89662D03*
G01X33909Y89662D03*
G54D20*
G01X24953Y27051D03*
G01X26354Y27051D03*
G54D21*
G01X32004Y86233D03*
G01X34036Y86233D03*
G01X32004Y82550D03*
G01X34036Y82550D03*
G01X60198Y51435D03*
G01X62230Y51435D03*
G01X60325Y32893D03*
G01X62357Y32893D03*
G01X3302Y33020D03*
G01X5334Y33020D03*
M00*
M02*
